<?xml version="1.0" encoding="UTF-8"?><svg xmlns="http://www.w3.org/2000/svg" xmlns:xlink="http://www.w3.org/1999/xlink" contentScriptType="text/ecmascript" width="375pt" zoomAndPan="magnify" contentStyleType="text/css" viewBox="0 0 375 374.999991" height="374.999991pt" preserveAspectRatio="xMidYMid meet" version="1.2"><defs><clipPath xml:id="clip1" id="clip1"><path d="M 98.992188 134.234375 L 275.992188 134.234375 L 275.992188 240.707031 L 98.992188 240.707031 Z M 98.992188 134.234375 "/></clipPath></defs><g xml:id="surface1" id="surface1"><g clip-rule="nonzero" clip-path="url(#clip1)"><path style=" stroke:none;fill-rule:nonzero;fill:rgb(36.859131%,9.799194%,89.408875%);fill-opacity:1;" d="M 263.847656 169.914062 L 240.371094 146.453125 C 240.355469 146.4375 240.339844 146.425781 240.324219 146.410156 C 240.3125 146.394531 240.296875 146.375 240.277344 146.355469 C 232.441406 138.523438 222.015625 134.210938 210.929688 134.210938 C 202.421875 134.210938 194.3125 136.761719 187.453125 141.480469 C 180.59375 136.761719 172.480469 134.210938 163.972656 134.210938 C 152.886719 134.210938 142.464844 138.523438 134.625 146.355469 L 111.148438 169.820312 C 103.3125 177.65625 98.992188 188.066406 98.992188 199.144531 C 98.992188 210.222656 103.3125 220.640625 111.148438 228.472656 C 118.984375 236.304688 129.410156 240.617188 140.496094 240.617188 C 149.003906 240.617188 157.113281 238.066406 163.972656 233.347656 C 170.832031 238.066406 178.945312 240.617188 187.453125 240.617188 C 195.953125 240.617188 204.054688 238.074219 210.910156 233.363281 C 217.792969 238.136719 225.945312 240.710938 234.503906 240.710938 C 245.589844 240.710938 256.011719 236.398438 263.847656 228.566406 C 271.6875 220.734375 276.003906 210.316406 276.003906 199.238281 C 276.003906 188.160156 271.6875 177.746094 263.847656 169.914062 Z M 151.226562 221.597656 C 141.976562 226.003906 130.542969 224.390625 122.890625 216.742188 C 113.179688 207.042969 113.179688 191.253906 122.890625 181.550781 C 122.890625 181.550781 122.890625 181.550781 122.890625 181.546875 L 146.367188 158.085938 C 151.070312 153.386719 157.324219 150.796875 163.976562 150.796875 C 167.757812 150.796875 171.410156 151.636719 174.71875 153.21875 L 158.109375 169.816406 C 151.671875 176.246094 147.613281 184.421875 146.367188 193.273438 C 146.097656 195.199219 145.953125 197.160156 145.953125 199.140625 C 145.953125 207.027344 148.152344 214.566406 152.238281 221.085938 C 151.902344 221.273438 151.5625 221.4375 151.226562 221.597656 Z M 205.0625 216.742188 C 200.359375 221.441406 194.105469 224.03125 187.453125 224.03125 C 180.800781 224.03125 174.546875 221.445312 169.84375 216.742188 C 160.132812 207.042969 160.132812 191.253906 169.84375 181.550781 L 187.453125 163.953125 L 205.0625 181.550781 C 214.769531 191.253906 214.769531 207.042969 205.0625 216.742188 Z M 252.109375 216.835938 C 244.421875 224.519531 232.921875 226.113281 223.644531 221.632812 C 223.3125 221.472656 222.980469 221.300781 222.652344 221.125 C 226.75 214.597656 228.953125 207.042969 228.953125 199.148438 C 228.953125 197.167969 228.8125 195.210938 228.539062 193.28125 C 227.292969 184.429688 223.234375 176.253906 216.800781 169.824219 L 200.292969 153.328125 L 200.199219 153.234375 C 209.449219 148.828125 220.882812 150.441406 228.535156 158.089844 C 228.550781 158.105469 228.566406 158.125 228.585938 158.144531 C 228.601562 158.15625 228.613281 158.167969 228.628906 158.183594 L 252 181.535156 L 252.109375 181.644531 C 256.808594 186.34375 259.402344 192.597656 259.402344 199.242188 C 259.402344 205.890625 256.8125 212.132812 252.109375 216.835938 Z M 252.109375 216.835938 "/></g></g></svg>